<svg xmlns="http://www.w3.org/2000/svg" viewBox="0 0 1600 1000"><defs><linearGradient id="w" y2="1"><stop stop-color="#151b17"/><stop offset="1" stop-color="#070b09"/></linearGradient><radialGradient id="f"><stop stop-color="#e8b765"/><stop offset=".25" stop-color="#a9502f"/><stop offset="1" stop-color="#26120e"/></radialGradient><filter id="g"><feGaussianBlur stdDeviation="10"/></filter></defs><rect width="1600" height="1000" fill="url(#w)"/><rect x="980" y="150" width="460" height="650" rx="8" fill="#201814" stroke="#8b7048" stroke-width="12"/><rect x="1018" y="205" width="385" height="510" fill="#120b09"/><ellipse cx="1210" cy="590" rx="145" ry="120" fill="url(#f)"/><g fill="#183b29" stroke="#294f39" stroke-width="5"><path d="M680 90L390 475h145L300 730h305v180h155V730h300L825 475h145z"/></g><g fill="#d8b46a"><circle cx="682" cy="195" r="9"/><circle cx="577" cy="395" r="8"/><circle cx="790" cy="420" r="10"/><circle cx="480" cy="615" r="9"/><circle cx="700" cy="590" r="8"/><circle cx="875" cy="650" r="10"/></g><g fill="#f5d996" filter="url(#g)" opacity=".6"><circle cx="682" cy="195" r="22"/><circle cx="577" cy="395" r="20"/><circle cx="790" cy="420" r="22"/><circle cx="480" cy="615" r="20"/><circle cx="875" cy="650" r="24"/></g><path d="M0 870h1600v130H0z" fill="#221912"/><path d="M1100 790h220" stroke="#987544" stroke-width="16"/><g fill="#5b1825"><rect x="500" y="795" width="130" height="110"/><rect x="790" y="810" width="150" height="95"/></g><path d="M565 795v110M500 840h130M865 810v95M790 850h150" stroke="#c9a45d" stroke-width="8"/></svg>
