<svg xmlns="http://www.w3.org/2000/svg" viewBox="0 0 900 900"><defs><linearGradient id="n" y2="1"><stop stop-color="#101b20"/><stop offset="1" stop-color="#24372f"/></linearGradient></defs><rect width="900" height="900" fill="url(#n)"/><g fill="#f5efe3" opacity=".55"><circle cx="100" cy="110" r="3"/><circle cx="250" cy="200" r="4"/><circle cx="490" cy="90" r="3"/><circle cx="750" cy="170" r="4"/><circle cx="820" cy="350" r="3"/></g><path d="M100 530L450 250l350 280v300H100z" fill="#d7c8ad"/><path d="M55 550l395-330 395 330-50 45-345-280-345 280z" fill="#173b2a"/><rect x="370" y="580" width="160" height="250" fill="#4c291e"/><g fill="#e7bd65"><rect x="160" y="590" width="120" height="130"/><rect x="620" y="590" width="120" height="130"/><rect x="380" y="390" width="140" height="110"/></g><path d="M0 800q225-70 450 0t450 0v100H0z" fill="#e9e8df"/><g stroke="#681f2b" stroke-width="7"><path d="M220 590v130M160 655h120M680 590v130M620 655h120"/></g></svg>
